<mxfile host="drawio-plugin" modified="2022-01-20T12:16:51.688Z" agent="5.0 (Macintosh; Intel Mac OS X 12_0_1) AppleWebKit/537.36 (KHTML, like Gecko) Chrome/89.0.4389.114 Safari/537.36" etag="ZFbnFGdBHVu5oxg-XMUN" version="15.5.4" type="embed"><diagram id="Kkp28xoG1WQWLBzj_xsY" name="Page-1"><mxGraphModel dx="2512" dy="971" grid="1" gridSize="10" guides="1" tooltips="1" connect="1" arrows="1" fold="1" page="1" pageScale="1" pageWidth="850" pageHeight="1100" math="0" shadow="0"><root><mxCell id="0"/><mxCell id="1" parent="0"/><mxCell id="rnmMsDFib0dkrXu8pk_r-1" value="&lt;b&gt;&lt;font style=&quot;font-size: 13px&quot;&gt;Init&lt;/font&gt;&lt;/b&gt;" style="rounded=1;whiteSpace=wrap;html=1;strokeColor=#82b366;strokeWidth=2;fillColor=#d5e8d4;" parent="1" vertex="1"><mxGeometry x="350" y="30" width="120" height="60" as="geometry"/></mxCell><mxCell id="rnmMsDFib0dkrXu8pk_r-2" value="&lt;b&gt;is valid?&lt;/b&gt;" style="rhombus;whiteSpace=wrap;html=1;fontSize=13;fillColor=#fff2cc;strokeColor=#d6b656;" parent="1" vertex="1"><mxGeometry x="345" y="140" width="130" height="80" as="geometry"/></mxCell><mxCell id="rnmMsDFib0dkrXu8pk_r-3" value="" style="endArrow=classic;html=1;rounded=0;fontSize=13;entryX=0.5;entryY=0;entryDx=0;entryDy=0;strokeWidth=2;" parent="1" source="rnmMsDFib0dkrXu8pk_r-1" target="rnmMsDFib0dkrXu8pk_r-2" edge="1"><mxGeometry width="50" height="50" relative="1" as="geometry"><mxPoint x="410" y="420" as="sourcePoint"/><mxPoint x="460" y="370" as="targetPoint"/></mxGeometry></mxCell><mxCell id="rnmMsDFib0dkrXu8pk_r-4" value="&lt;b&gt;Is regulation require?&lt;/b&gt;" style="rhombus;whiteSpace=wrap;html=1;fontSize=13;fillColor=#fff2cc;strokeColor=#d6b656;" parent="1" vertex="1"><mxGeometry x="190" y="230" width="130" height="80" as="geometry"/></mxCell><mxCell id="rnmMsDFib0dkrXu8pk_r-6" value="&lt;b&gt;&lt;font style=&quot;font-size: 13px&quot;&gt;Fail&lt;/font&gt;&lt;/b&gt;" style="rounded=1;whiteSpace=wrap;html=1;strokeWidth=2;strokeColor=#b85450;fillColor=#f8cecc;" parent="1" vertex="1"><mxGeometry x="830" y="240" width="120" height="60" as="geometry"/></mxCell><mxCell id="rnmMsDFib0dkrXu8pk_r-8" value="" style="edgeStyle=elbowEdgeStyle;elbow=vertical;endArrow=classic;html=1;rounded=0;fontSize=13;exitX=1;exitY=0.5;exitDx=0;exitDy=0;strokeWidth=2;entryX=0.5;entryY=0;entryDx=0;entryDy=0;" parent="1" source="rnmMsDFib0dkrXu8pk_r-2" target="rnmMsDFib0dkrXu8pk_r-6" edge="1"><mxGeometry width="50" height="50" relative="1" as="geometry"><mxPoint x="410" y="740" as="sourcePoint"/><mxPoint x="1030" y="230" as="targetPoint"/><Array as="points"><mxPoint x="520" y="180"/></Array></mxGeometry></mxCell><mxCell id="rnmMsDFib0dkrXu8pk_r-9" value="Yes" style="text;html=1;strokeColor=none;fillColor=none;align=center;verticalAlign=middle;whiteSpace=wrap;rounded=0;fontSize=13;" parent="1" vertex="1"><mxGeometry x="270" y="150" width="60" height="30" as="geometry"/></mxCell><mxCell id="rnmMsDFib0dkrXu8pk_r-10" value="No" style="text;html=1;strokeColor=none;fillColor=none;align=center;verticalAlign=middle;whiteSpace=wrap;rounded=0;fontSize=13;" parent="1" vertex="1"><mxGeometry x="510" y="150" width="60" height="30" as="geometry"/></mxCell><mxCell id="rnmMsDFib0dkrXu8pk_r-11" value="" style="edgeStyle=elbowEdgeStyle;elbow=vertical;endArrow=classic;html=1;rounded=0;fontSize=13;exitX=0;exitY=0.5;exitDx=0;exitDy=0;entryX=0.5;entryY=0;entryDx=0;entryDy=0;strokeWidth=2;" parent="1" source="rnmMsDFib0dkrXu8pk_r-2" target="rnmMsDFib0dkrXu8pk_r-4" edge="1"><mxGeometry width="50" height="50" relative="1" as="geometry"><mxPoint x="485" y="190" as="sourcePoint"/><mxPoint x="590" y="240" as="targetPoint"/><Array as="points"><mxPoint x="280" y="180"/></Array></mxGeometry></mxCell><mxCell id="rnmMsDFib0dkrXu8pk_r-12" value="" style="edgeStyle=elbowEdgeStyle;elbow=vertical;endArrow=classic;html=1;rounded=0;fontSize=13;exitX=1;exitY=0.5;exitDx=0;exitDy=0;entryX=0.5;entryY=0;entryDx=0;entryDy=0;strokeWidth=2;" parent="1" source="rnmMsDFib0dkrXu8pk_r-4" target="rnmMsDFib0dkrXu8pk_r-25" edge="1"><mxGeometry width="50" height="50" relative="1" as="geometry"><mxPoint x="705" y="270" as="sourcePoint"/><mxPoint x="810" y="320" as="targetPoint"/><Array as="points"><mxPoint x="670" y="270"/></Array></mxGeometry></mxCell><mxCell id="rnmMsDFib0dkrXu8pk_r-13" value="Yes" style="text;html=1;strokeColor=none;fillColor=none;align=center;verticalAlign=middle;whiteSpace=wrap;rounded=0;fontSize=13;" parent="1" vertex="1"><mxGeometry x="70" y="230" width="60" height="30" as="geometry"/></mxCell><mxCell id="rnmMsDFib0dkrXu8pk_r-14" value="No" style="text;html=1;strokeColor=none;fillColor=none;align=center;verticalAlign=middle;whiteSpace=wrap;rounded=0;fontSize=13;" parent="1" vertex="1"><mxGeometry x="470" y="230" width="60" height="30" as="geometry"/></mxCell><mxCell id="rnmMsDFib0dkrXu8pk_r-15" value="" style="edgeStyle=elbowEdgeStyle;elbow=vertical;endArrow=classic;html=1;rounded=0;fontSize=13;entryX=0.5;entryY=0;entryDx=0;entryDy=0;strokeWidth=2;exitX=0;exitY=0.5;exitDx=0;exitDy=0;" parent="1" source="rnmMsDFib0dkrXu8pk_r-4" target="rnmMsDFib0dkrXu8pk_r-16" edge="1"><mxGeometry width="50" height="50" relative="1" as="geometry"><mxPoint x="180" y="270" as="sourcePoint"/><mxPoint x="100" y="320" as="targetPoint"/><Array as="points"><mxPoint x="125" y="270"/></Array></mxGeometry></mxCell><mxCell id="rnmMsDFib0dkrXu8pk_r-16" value="&lt;b&gt;&lt;font style=&quot;font-size: 13px&quot;&gt;Pending&lt;br&gt;&amp;nbsp;regulation&lt;/font&gt;&lt;/b&gt;" style="rounded=1;whiteSpace=wrap;html=1;strokeColor=#d79b00;strokeWidth=2;fillColor=#ffe6cc;" parent="1" vertex="1"><mxGeometry x="-115" y="320" width="120" height="60" as="geometry"/></mxCell><mxCell id="49" style="edgeStyle=orthogonalEdgeStyle;rounded=0;orthogonalLoop=1;jettySize=auto;html=1;entryX=0.5;entryY=0;entryDx=0;entryDy=0;strokeWidth=2;" parent="1" source="rnmMsDFib0dkrXu8pk_r-18" target="rnmMsDFib0dkrXu8pk_r-24" edge="1"><mxGeometry relative="1" as="geometry"/></mxCell><mxCell id="rnmMsDFib0dkrXu8pk_r-18" value="&lt;b&gt;Was regulation succesfull?&lt;/b&gt;" style="rhombus;whiteSpace=wrap;html=1;fontSize=13;fillColor=#fff2cc;strokeColor=#d6b656;" parent="1" vertex="1"><mxGeometry x="-120" y="410" width="130" height="80" as="geometry"/></mxCell><mxCell id="rnmMsDFib0dkrXu8pk_r-21" value="No" style="text;html=1;strokeColor=none;fillColor=none;align=center;verticalAlign=middle;whiteSpace=wrap;rounded=0;fontSize=13;" parent="1" vertex="1"><mxGeometry x="30" y="410" width="60" height="30" as="geometry"/></mxCell><mxCell id="rnmMsDFib0dkrXu8pk_r-22" value="" style="edgeStyle=elbowEdgeStyle;elbow=vertical;endArrow=classic;html=1;rounded=0;fontSize=13;exitX=0;exitY=0.5;exitDx=0;exitDy=0;entryX=0.5;entryY=0;entryDx=0;entryDy=0;strokeWidth=2;" parent="1" source="rnmMsDFib0dkrXu8pk_r-18" target="24" edge="1"><mxGeometry width="50" height="50" relative="1" as="geometry"><mxPoint x="-120" y="500" as="sourcePoint"/><mxPoint x="-210" y="550" as="targetPoint"/><Array as="points"><mxPoint x="-170" y="450"/></Array></mxGeometry></mxCell><mxCell id="rnmMsDFib0dkrXu8pk_r-23" value="" style="endArrow=classic;html=1;rounded=0;fontSize=13;entryX=0.5;entryY=0;entryDx=0;entryDy=0;strokeWidth=2;exitX=0.5;exitY=1;exitDx=0;exitDy=0;" parent="1" source="rnmMsDFib0dkrXu8pk_r-16" target="rnmMsDFib0dkrXu8pk_r-18" edge="1"><mxGeometry width="50" height="50" relative="1" as="geometry"><mxPoint x="45" y="400" as="sourcePoint"/><mxPoint x="45" y="450" as="targetPoint"/></mxGeometry></mxCell><mxCell id="rnmMsDFib0dkrXu8pk_r-25" value="&lt;b&gt;Is&lt;/b&gt;&lt;b&gt;&amp;nbsp;transfer to&lt;/b&gt;&lt;b&gt;&lt;br&gt;smart contract?&lt;/b&gt;" style="rhombus;whiteSpace=wrap;html=1;fontSize=13;fillColor=#fff2cc;strokeColor=#d6b656;" parent="1" vertex="1"><mxGeometry x="605" y="320" width="130" height="80" as="geometry"/></mxCell><mxCell id="rnmMsDFib0dkrXu8pk_r-26" value="" style="edgeStyle=elbowEdgeStyle;elbow=vertical;endArrow=classic;html=1;rounded=0;fontSize=13;exitX=1;exitY=0.5;exitDx=0;exitDy=0;entryX=0.5;entryY=0;entryDx=0;entryDy=0;strokeWidth=2;" parent="1" target="rnmMsDFib0dkrXu8pk_r-30" edge="1"><mxGeometry width="50" height="50" relative="1" as="geometry"><mxPoint x="735" y="360" as="sourcePoint"/><mxPoint x="840" y="410" as="targetPoint"/><Array as="points"><mxPoint x="780" y="360"/></Array></mxGeometry></mxCell><mxCell id="rnmMsDFib0dkrXu8pk_r-27" value="Yes" style="text;html=1;strokeColor=none;fillColor=none;align=center;verticalAlign=middle;whiteSpace=wrap;rounded=0;fontSize=13;" parent="1" vertex="1"><mxGeometry x="530" y="330" width="60" height="30" as="geometry"/></mxCell><mxCell id="rnmMsDFib0dkrXu8pk_r-28" value="No" style="text;html=1;strokeColor=none;fillColor=none;align=center;verticalAlign=middle;whiteSpace=wrap;rounded=0;fontSize=13;" parent="1" vertex="1"><mxGeometry x="770" y="330" width="60" height="30" as="geometry"/></mxCell><mxCell id="rnmMsDFib0dkrXu8pk_r-29" value="" style="edgeStyle=elbowEdgeStyle;elbow=vertical;endArrow=classic;html=1;rounded=0;fontSize=13;exitX=0.5;exitY=1;exitDx=0;exitDy=0;entryX=0.5;entryY=0;entryDx=0;entryDy=0;strokeWidth=2;" parent="1" target="3" edge="1" source="80"><mxGeometry width="50" height="50" relative="1" as="geometry"><mxPoint x="605" y="360" as="sourcePoint"/><mxPoint x="515" y="410" as="targetPoint"/><Array as="points"><mxPoint x="460" y="470"/></Array></mxGeometry></mxCell><mxCell id="rnmMsDFib0dkrXu8pk_r-30" value="&lt;b&gt;&lt;font style=&quot;font-size: 13px&quot;&gt;Done&lt;/font&gt;&lt;/b&gt;" style="rounded=1;whiteSpace=wrap;html=1;strokeColor=#82b366;strokeWidth=2;fillColor=#d5e8d4;" parent="1" vertex="1"><mxGeometry x="785" y="410" width="120" height="60" as="geometry"/></mxCell><mxCell id="14" style="edgeStyle=orthogonalEdgeStyle;rounded=0;orthogonalLoop=1;jettySize=auto;html=1;strokeWidth=2;entryX=0.5;entryY=0;entryDx=0;entryDy=0;" parent="1" source="3" target="13" edge="1"><mxGeometry relative="1" as="geometry"><mxPoint x="355" y="600" as="targetPoint"/></mxGeometry></mxCell><mxCell id="22" style="edgeStyle=orthogonalEdgeStyle;rounded=0;orthogonalLoop=1;jettySize=auto;html=1;strokeWidth=2;entryX=0.5;entryY=0;entryDx=0;entryDy=0;" parent="1" source="3" target="50" edge="1"><mxGeometry relative="1" as="geometry"><mxPoint x="675" y="600" as="targetPoint"/></mxGeometry></mxCell><mxCell id="3" value="&lt;b&gt;Is accepted by&amp;nbsp;&lt;br&gt;smart contract?&lt;br&gt;&lt;/b&gt;" style="rhombus;whiteSpace=wrap;html=1;fontSize=13;fillColor=#fff2cc;strokeColor=#d6b656;" parent="1" vertex="1"><mxGeometry x="439" y="490" width="130" height="80" as="geometry"/></mxCell><mxCell id="13" value="&lt;b&gt;&lt;font style=&quot;font-size: 13px&quot;&gt;Done&lt;/font&gt;&lt;/b&gt;" style="rounded=1;whiteSpace=wrap;html=1;strokeColor=#82b366;strokeWidth=2;fillColor=#d5e8d4;" parent="1" vertex="1"><mxGeometry x="285" y="600" width="120" height="60" as="geometry"/></mxCell><mxCell id="17" value="Yes" style="text;html=1;strokeColor=none;fillColor=none;align=center;verticalAlign=middle;whiteSpace=wrap;rounded=0;fontSize=13;" parent="1" vertex="1"><mxGeometry x="350" y="490" width="60" height="30" as="geometry"/></mxCell><mxCell id="24" value="&lt;b&gt;Is&lt;/b&gt;&lt;b&gt;&amp;nbsp;transfer to&lt;/b&gt;&lt;b&gt;&lt;br&gt;smart contract?&lt;/b&gt;" style="rhombus;whiteSpace=wrap;html=1;fontSize=13;fillColor=#fff2cc;strokeColor=#d6b656;" parent="1" vertex="1"><mxGeometry x="-270" y="550" width="130" height="80" as="geometry"/></mxCell><mxCell id="25" value="" style="edgeStyle=elbowEdgeStyle;elbow=vertical;endArrow=classic;html=1;rounded=0;fontSize=13;exitX=1;exitY=0.5;exitDx=0;exitDy=0;entryX=0.5;entryY=0;entryDx=0;entryDy=0;strokeWidth=2;" parent="1" target="29" edge="1"><mxGeometry width="50" height="50" relative="1" as="geometry"><mxPoint x="-140" y="590" as="sourcePoint"/><mxPoint x="-30" y="640" as="targetPoint"/><Array as="points"><mxPoint x="-95" y="590"/></Array></mxGeometry></mxCell><mxCell id="26" value="Yes" style="text;html=1;strokeColor=none;fillColor=none;align=center;verticalAlign=middle;whiteSpace=wrap;rounded=0;fontSize=13;" parent="1" vertex="1"><mxGeometry x="-220" y="410" width="60" height="30" as="geometry"/></mxCell><mxCell id="27" value="No" style="text;html=1;strokeColor=none;fillColor=none;align=center;verticalAlign=middle;whiteSpace=wrap;rounded=0;fontSize=13;" parent="1" vertex="1"><mxGeometry x="-105" y="560" width="60" height="30" as="geometry"/></mxCell><mxCell id="29" value="&lt;b&gt;&lt;font style=&quot;font-size: 13px&quot;&gt;Done&lt;/font&gt;&lt;/b&gt;" style="rounded=1;whiteSpace=wrap;html=1;strokeColor=#82b366;strokeWidth=2;fillColor=#d5e8d4;" parent="1" vertex="1"><mxGeometry x="-90" y="650" width="120" height="60" as="geometry"/></mxCell><mxCell id="rnmMsDFib0dkrXu8pk_r-24" value="&lt;b&gt;&lt;font style=&quot;font-size: 13px&quot;&gt;Rejected by regulation&lt;/font&gt;&lt;/b&gt;" style="rounded=1;whiteSpace=wrap;html=1;strokeWidth=2;strokeColor=#b85450;fillColor=#f8cecc;" parent="1" vertex="1"><mxGeometry x="60" y="510" width="120" height="60" as="geometry"/></mxCell><mxCell id="50" value="&lt;b&gt;&lt;font style=&quot;font-size: 13px&quot;&gt;Rejected by smart contract&lt;/font&gt;&lt;/b&gt;" style="rounded=1;whiteSpace=wrap;html=1;strokeWidth=2;strokeColor=#b85450;fillColor=#f8cecc;" parent="1" vertex="1"><mxGeometry x="615" y="600" width="120" height="60" as="geometry"/></mxCell><mxCell id="53" value="No" style="text;html=1;strokeColor=none;fillColor=none;align=center;verticalAlign=middle;whiteSpace=wrap;rounded=0;fontSize=13;" parent="1" vertex="1"><mxGeometry x="580" y="490" width="60" height="30" as="geometry"/></mxCell><mxCell id="54" value="" style="edgeStyle=elbowEdgeStyle;elbow=vertical;endArrow=classic;html=1;rounded=0;fontSize=13;exitX=0;exitY=0.5;exitDx=0;exitDy=0;strokeWidth=2;entryX=0.5;entryY=0;entryDx=0;entryDy=0;" parent="1" target="80" edge="1"><mxGeometry width="50" height="50" relative="1" as="geometry"><mxPoint x="605" y="360" as="sourcePoint"/><mxPoint x="515" y="410" as="targetPoint"/><Array as="points"><mxPoint x="540" y="360"/></Array></mxGeometry></mxCell><mxCell id="55" style="edgeStyle=orthogonalEdgeStyle;rounded=0;orthogonalLoop=1;jettySize=auto;html=1;strokeWidth=2;entryX=0.5;entryY=0;entryDx=0;entryDy=0;" parent="1" source="57" target="58" edge="1"><mxGeometry relative="1" as="geometry"><mxPoint x="355" y="600" as="targetPoint"/></mxGeometry></mxCell><mxCell id="56" style="edgeStyle=orthogonalEdgeStyle;rounded=0;orthogonalLoop=1;jettySize=auto;html=1;strokeWidth=2;entryX=0.5;entryY=0;entryDx=0;entryDy=0;" parent="1" source="57" target="60" edge="1"><mxGeometry relative="1" as="geometry"><mxPoint x="675" y="600" as="targetPoint"/></mxGeometry></mxCell><mxCell id="57" value="&lt;b&gt;Is accepted by&amp;nbsp;&lt;br&gt;smart contract?&lt;br&gt;&lt;/b&gt;" style="rhombus;whiteSpace=wrap;html=1;fontSize=13;fillColor=#fff2cc;strokeColor=#d6b656;" parent="1" vertex="1"><mxGeometry x="439" y="490" width="130" height="80" as="geometry"/></mxCell><mxCell id="58" value="&lt;b&gt;&lt;font style=&quot;font-size: 13px&quot;&gt;Done&lt;/font&gt;&lt;/b&gt;" style="rounded=1;whiteSpace=wrap;html=1;strokeColor=#82b366;strokeWidth=2;fillColor=#d5e8d4;" parent="1" vertex="1"><mxGeometry x="285" y="600" width="120" height="60" as="geometry"/></mxCell><mxCell id="59" value="Yes" style="text;html=1;strokeColor=none;fillColor=none;align=center;verticalAlign=middle;whiteSpace=wrap;rounded=0;fontSize=13;" parent="1" vertex="1"><mxGeometry x="350" y="490" width="60" height="30" as="geometry"/></mxCell><mxCell id="60" value="&lt;b&gt;&lt;font style=&quot;font-size: 13px&quot;&gt;Rejected by smart contract&lt;/font&gt;&lt;/b&gt;" style="rounded=1;whiteSpace=wrap;html=1;strokeWidth=2;strokeColor=#b85450;fillColor=#f8cecc;" parent="1" vertex="1"><mxGeometry x="615" y="600" width="120" height="60" as="geometry"/></mxCell><mxCell id="61" value="No" style="text;html=1;strokeColor=none;fillColor=none;align=center;verticalAlign=middle;whiteSpace=wrap;rounded=0;fontSize=13;" parent="1" vertex="1"><mxGeometry x="580" y="490" width="60" height="30" as="geometry"/></mxCell><mxCell id="63" value="Yes" style="text;html=1;strokeColor=none;fillColor=none;align=center;verticalAlign=middle;whiteSpace=wrap;rounded=0;fontSize=13;" parent="1" vertex="1"><mxGeometry x="-355" y="560" width="60" height="30" as="geometry"/></mxCell><mxCell id="64" value="" style="edgeStyle=elbowEdgeStyle;elbow=vertical;endArrow=classic;html=1;rounded=0;fontSize=13;entryX=0.5;entryY=0;entryDx=0;entryDy=0;strokeWidth=2;exitX=0.5;exitY=1;exitDx=0;exitDy=0;" parent="1" target="67" edge="1" source="81"><mxGeometry width="50" height="50" relative="1" as="geometry"><mxPoint x="-391" y="690" as="sourcePoint"/><mxPoint x="-370" y="640" as="targetPoint"/><Array as="points"/></mxGeometry></mxCell><mxCell id="65" style="edgeStyle=orthogonalEdgeStyle;rounded=0;orthogonalLoop=1;jettySize=auto;html=1;strokeWidth=2;entryX=0.5;entryY=0;entryDx=0;entryDy=0;" parent="1" source="67" target="68" edge="1"><mxGeometry relative="1" as="geometry"><mxPoint x="-540" y="830" as="targetPoint"/></mxGeometry></mxCell><mxCell id="66" style="edgeStyle=orthogonalEdgeStyle;rounded=0;orthogonalLoop=1;jettySize=auto;html=1;strokeWidth=2;entryX=0.5;entryY=0;entryDx=0;entryDy=0;" parent="1" source="67" target="70" edge="1"><mxGeometry relative="1" as="geometry"><mxPoint x="-220" y="830" as="targetPoint"/></mxGeometry></mxCell><mxCell id="67" value="&lt;b&gt;Is accepted by&amp;nbsp;&lt;br&gt;smart contract?&lt;br&gt;&lt;/b&gt;" style="rhombus;whiteSpace=wrap;html=1;fontSize=13;fillColor=#fff2cc;strokeColor=#d6b656;" parent="1" vertex="1"><mxGeometry x="-456" y="720" width="130" height="80" as="geometry"/></mxCell><mxCell id="68" value="&lt;b&gt;&lt;font style=&quot;font-size: 13px&quot;&gt;Done&lt;/font&gt;&lt;/b&gt;" style="rounded=1;whiteSpace=wrap;html=1;strokeColor=#82b366;strokeWidth=2;fillColor=#d5e8d4;" parent="1" vertex="1"><mxGeometry x="-610" y="830" width="120" height="60" as="geometry"/></mxCell><mxCell id="69" value="Yes" style="text;html=1;strokeColor=none;fillColor=none;align=center;verticalAlign=middle;whiteSpace=wrap;rounded=0;fontSize=13;" parent="1" vertex="1"><mxGeometry x="-545" y="720" width="60" height="30" as="geometry"/></mxCell><mxCell id="70" value="&lt;b&gt;&lt;font style=&quot;font-size: 13px&quot;&gt;Rejected by smart contract&lt;/font&gt;&lt;/b&gt;" style="rounded=1;whiteSpace=wrap;html=1;strokeWidth=2;strokeColor=#b85450;fillColor=#f8cecc;" parent="1" vertex="1"><mxGeometry x="-280" y="830" width="120" height="60" as="geometry"/></mxCell><mxCell id="71" value="No" style="text;html=1;strokeColor=none;fillColor=none;align=center;verticalAlign=middle;whiteSpace=wrap;rounded=0;fontSize=13;" parent="1" vertex="1"><mxGeometry x="-315" y="720" width="60" height="30" as="geometry"/></mxCell><mxCell id="72" value="" style="edgeStyle=elbowEdgeStyle;elbow=vertical;endArrow=classic;html=1;rounded=0;fontSize=13;exitX=0;exitY=0.5;exitDx=0;exitDy=0;strokeWidth=2;entryX=0.5;entryY=0;entryDx=0;entryDy=0;" parent="1" source="24" target="81" edge="1"><mxGeometry width="50" height="50" relative="1" as="geometry"><mxPoint x="-280" y="590" as="sourcePoint"/><mxPoint x="-370" y="640" as="targetPoint"/><Array as="points"><mxPoint x="-345" y="590"/></Array></mxGeometry></mxCell><mxCell id="73" style="edgeStyle=orthogonalEdgeStyle;rounded=0;orthogonalLoop=1;jettySize=auto;html=1;strokeWidth=2;entryX=0.5;entryY=0;entryDx=0;entryDy=0;" parent="1" source="75" target="76" edge="1"><mxGeometry relative="1" as="geometry"><mxPoint x="-540" y="830" as="targetPoint"/></mxGeometry></mxCell><mxCell id="74" style="edgeStyle=orthogonalEdgeStyle;rounded=0;orthogonalLoop=1;jettySize=auto;html=1;strokeWidth=2;entryX=0.5;entryY=0;entryDx=0;entryDy=0;" parent="1" source="75" target="78" edge="1"><mxGeometry relative="1" as="geometry"><mxPoint x="-220" y="830" as="targetPoint"/></mxGeometry></mxCell><mxCell id="75" value="&lt;b&gt;Is accepted by&amp;nbsp;&lt;br&gt;smart contract?&lt;br&gt;&lt;/b&gt;" style="rhombus;whiteSpace=wrap;html=1;fontSize=13;fillColor=#fff2cc;strokeColor=#d6b656;" parent="1" vertex="1"><mxGeometry x="-456" y="720" width="130" height="80" as="geometry"/></mxCell><mxCell id="76" value="&lt;b&gt;&lt;font style=&quot;font-size: 13px&quot;&gt;Done&lt;/font&gt;&lt;/b&gt;" style="rounded=1;whiteSpace=wrap;html=1;strokeColor=#82b366;strokeWidth=2;fillColor=#d5e8d4;" parent="1" vertex="1"><mxGeometry x="-610" y="830" width="120" height="60" as="geometry"/></mxCell><mxCell id="77" value="Yes" style="text;html=1;strokeColor=none;fillColor=none;align=center;verticalAlign=middle;whiteSpace=wrap;rounded=0;fontSize=13;" parent="1" vertex="1"><mxGeometry x="-545" y="720" width="60" height="30" as="geometry"/></mxCell><mxCell id="78" value="&lt;b&gt;&lt;font style=&quot;font-size: 13px&quot;&gt;Rejected by smart contract&lt;/font&gt;&lt;/b&gt;" style="rounded=1;whiteSpace=wrap;html=1;strokeWidth=2;strokeColor=#b85450;fillColor=#f8cecc;" parent="1" vertex="1"><mxGeometry x="-280" y="830" width="120" height="60" as="geometry"/></mxCell><mxCell id="79" value="No" style="text;html=1;strokeColor=none;fillColor=none;align=center;verticalAlign=middle;whiteSpace=wrap;rounded=0;fontSize=13;" parent="1" vertex="1"><mxGeometry x="-315" y="720" width="60" height="30" as="geometry"/></mxCell><mxCell id="80" value="&lt;b&gt;&lt;font style=&quot;font-size: 13px&quot;&gt;Pending&lt;br&gt;smart contract&lt;/font&gt;&lt;/b&gt;" style="rounded=1;whiteSpace=wrap;html=1;strokeColor=#d79b00;strokeWidth=2;fillColor=#ffe6cc;" vertex="1" parent="1"><mxGeometry x="444" y="395" width="120" height="60" as="geometry"/></mxCell><mxCell id="81" value="&lt;b&gt;&lt;font style=&quot;font-size: 13px&quot;&gt;Pending&lt;br&gt;smart contract&lt;/font&gt;&lt;/b&gt;" style="rounded=1;whiteSpace=wrap;html=1;strokeColor=#d79b00;strokeWidth=2;fillColor=#ffe6cc;" vertex="1" parent="1"><mxGeometry x="-451" y="620" width="120" height="60" as="geometry"/></mxCell></root></mxGraphModel></diagram></mxfile>